HIERARCHY
ROOT Hips
{
	OFFSET 0.000000 0.000000 0.000000
	CHANNELS 6 Xposition Yposition Zposition Zrotation Yrotation Xrotation 
	JOINT LeftUpLeg_virtual
	{
		OFFSET 0.000000 0.000000 0.000000
		CHANNELS 3 Zrotation Yrotation Xrotation
		JOINT LeftUpLeg
		{
			OFFSET 8.479694 -4.795517 -0.379053
			CHANNELS 3 Zrotation Yrotation Xrotation
			JOINT LeftLeg
			{
				OFFSET 0.485052 -32.551468 0.112863
				CHANNELS 3 Zrotation Yrotation Xrotation
				JOINT LeftFoot
				{
					OFFSET 0.438033 -32.635670 -3.012641
					CHANNELS 3 Zrotation Yrotation Xrotation
					JOINT LeftToeBase
					{
						OFFSET 0.970169 -13.225353 11.864223
						CHANNELS 3 Zrotation Yrotation Xrotation
						End Site
						{
							OFFSET 0.000000 0.000000 0.000000
						}
					}
				}
			}
		}
	}
	JOINT RightUpLeg_virtual
	{
		OFFSET 0.000000 0.000000 0.000000
		CHANNELS 3 Zrotation Yrotation Xrotation
		JOINT RightUpLeg
		{
			OFFSET -8.479694 -4.795517 -0.379053
			CHANNELS 3 Zrotation Yrotation Xrotation
			JOINT RightLeg
			{
				OFFSET -0.484100 -32.551483 0.112903
				CHANNELS 3 Zrotation Yrotation Xrotation
				JOINT RightFoot
				{
					OFFSET -0.438985 -32.635651 -3.012681
					CHANNELS 3 Zrotation Yrotation Xrotation
					JOINT RightToeBase
					{
						OFFSET -0.970169 -13.225354 11.864223
						CHANNELS 3 Zrotation Yrotation Xrotation
						End Site
						{
							OFFSET 0.000000 0.000000 0.000000
						}
					}
				}
			}
		}
	}
	JOINT Spine_virtual
	{
		OFFSET 0.000000 0.000000 0.000000
		CHANNELS 3 Zrotation Yrotation Xrotation
		JOINT Spine
		{
			OFFSET 0.000000 7.722015 1.166203
			CHANNELS 3 Zrotation Yrotation Xrotation
			JOINT Spine1
			{
				OFFSET 0.000000 12.024086 0.248766
				CHANNELS 3 Zrotation Yrotation Xrotation
				JOINT Spine2
				{
					OFFSET -0.000000 11.503036 -0.491240
					CHANNELS 3 Zrotation Yrotation Xrotation
					JOINT Neck_virtual
					{
						OFFSET 0.000000 0.000000 0.000000
						CHANNELS 3 Zrotation Yrotation Xrotation
						JOINT Neck
						{
							OFFSET 0.000000 18.430687 -3.123054
							CHANNELS 3 Zrotation Yrotation Xrotation
							JOINT Head
							{
								OFFSET -0.000000 9.051071 1.034021
								CHANNELS 3 Zrotation Yrotation Xrotation
								End Site
								{
									OFFSET 0.000000 0.000000 0.000000
								}
							}
						}
					}
					JOINT LeftShoulder_virtual
					{
						OFFSET 0.000000 0.000000 0.000000
						CHANNELS 3 Zrotation Yrotation Xrotation
						JOINT LeftShoulder
						{
							OFFSET 6.197824 13.665230 -4.064723
							CHANNELS 3 Zrotation Yrotation Xrotation
							JOINT LeftArm
							{
								OFFSET 7.778132 -0.187073 -1.709282
								CHANNELS 3 Zrotation Yrotation Xrotation
								JOINT LeftForeArm
								{
									OFFSET 21.954697 0.000000 -2.041093
									CHANNELS 3 Zrotation Yrotation Xrotation
									JOINT LeftHand
									{
										OFFSET 22.992908 0.000000 -0.870901
										CHANNELS 3 Zrotation Yrotation Xrotation
										End Site
										{
											OFFSET 0.000000 0.000000 0.000000
										}
									}
								}
							}
						}
					}
					JOINT RightShoulder_virtual
					{
						OFFSET 0.000000 0.000000 0.000000
						CHANNELS 3 Zrotation Yrotation Xrotation
						JOINT RightShoulder
						{
							OFFSET -6.197824 13.665230 -4.064723
							CHANNELS 3 Zrotation Yrotation Xrotation
							JOINT RightArm
							{
								OFFSET -7.778132 -0.187073 -1.709282
								CHANNELS 3 Zrotation Yrotation Xrotation
								JOINT RightForeArm
								{
									OFFSET -21.954697 0.000000 -2.041093
									CHANNELS 3 Zrotation Yrotation Xrotation
									JOINT RightHand
									{
										OFFSET -22.992908 0.000000 -0.870901
										CHANNELS 3 Zrotation Yrotation Xrotation
										End Site
										{
											OFFSET 0.000000 0.000000 0.000000
										}
									}
								}
							}
						}
					}
				}
			}
		}
	}
}
MOTION
Frames: 11
Frame Time: 0.033333
-3.484887 80.864853 30.451662 -179.972083 4.897640 -179.967521 -4.586887 -1.277683 10.660822 -4.327679 2.659443 -23.587710 9.938751 4.007706 31.150977 1.884305 -9.697734 -13.445171 0.000000 0.000000 0.000000 -1.410784 -1.054483 10.355036 -0.649871 -1.903417 -20.097815 -1.597476 2.274384 29.343312 8.148440 4.792510 -12.395613 0.000000 0.000000 0.000000 2.556269 1.574707 -1.819038 -5.307723 1.959546 -1.458629 0.783910 -2.840742 4.456397 0.024992 0.060353 0.023929 0.679200 -2.047853 5.761183 -0.015629 1.768349 -3.480459 0.000000 0.000000 0.000000 2.073889 -1.263735 2.731582 -1.947681 4.577374 -6.215772 -7.235961 -7.359787 -50.609660 1.538848 -34.823262 -2.786240 0.000000 0.000000 0.000000 -1.636300 -0.093483 2.230975 22.029073 -7.995358 -8.378762 1.889812 2.189198 -61.420715 1.365559 21.885787 5.019261 0.000000 0.000000 0.000000 
-3.472924 80.855263 30.443289 -179.964707 4.984715 -179.884807 -4.500258 -1.343525 10.755402 -4.192569 2.350766 -23.504416 10.079301 3.777626 31.328005 2.029871 -9.542986 -13.758857 0.000000 0.000000 0.000000 -1.415741 -0.996747 10.314224 -0.542078 -2.258869 -20.163123 -1.565689 1.950022 29.532420 8.101538 4.725194 -12.291944 0.000000 0.000000 0.000000 2.534771 1.559603 -1.823158 -5.296397 1.966280 -1.485187 0.781575 -2.840618 4.388292 0.018663 0.047787 0.115199 0.671973 -2.042385 5.721294 -0.038112 1.757283 -3.533189 0.000000 0.000000 0.000000 2.078966 -1.209680 2.639486 -1.962219 4.612673 -6.189262 -7.269834 -7.334072 -50.585723 1.518250 -34.851607 -2.757021 0.000000 0.000000 0.000000 -1.648104 -0.045160 2.233676 22.025318 -7.957134 -8.351147 1.851163 2.147729 -61.474605 1.362291 22.082220 5.027100 0.000000 0.000000 0.000000 
-3.455333 80.851776 30.419928 -179.970102 4.912152 -179.897265 -4.503393 -1.388695 10.810035 -4.199638 2.311176 -23.537056 10.115265 3.725400 31.346556 2.040701 -9.517766 -13.765468 0.000000 0.000000 0.000000 -1.405550 -1.050449 10.369818 -0.545686 -2.361139 -20.205054 -1.553534 1.971546 29.562920 8.142150 4.757856 -12.317497 0.000000 0.000000 0.000000 2.531648 1.569339 -1.781804 -5.259678 1.995738 -1.481909 0.785905 -2.807336 4.438193 0.023669 0.087483 0.038165 0.702047 -2.027984 5.765010 -0.018851 1.683123 -3.529920 0.000000 0.000000 0.000000 2.076161 -1.245603 2.733390 -1.970306 4.614881 -6.207426 -7.273982 -7.554322 -50.346318 1.615688 -34.798120 -2.873174 0.000000 0.000000 0.000000 -1.642737 -0.094212 2.244547 22.074169 -8.038243 -8.309717 1.865130 2.006979 -61.542545 1.377500 22.338998 5.052935 0.000000 0.000000 0.000000 
-3.426495 80.856552 30.394260 179.992560 4.808930 -179.879165 -4.545218 -1.454081 10.840721 -4.210134 2.249458 -23.566318 10.142695 3.676273 31.315383 2.044703 -9.487369 -13.733945 0.000000 0.000000 0.000000 -1.407403 -1.067140 10.405777 -0.545766 -2.535559 -20.246351 -1.543913 2.012277 29.594253 8.185171 4.785006 -12.322149 0.000000 0.000000 0.000000 2.491193 1.545998 -1.738086 -5.222039 1.980047 -1.533237 0.741803 -2.824143 4.427412 -0.047450 0.064004 0.052105 0.762734 -1.931008 5.798362 -0.052753 1.651975 -3.426936 0.000000 0.000000 0.000000 2.172352 -1.200676 2.749003 -1.994893 4.688436 -6.293931 -7.285059 -7.707810 -50.249510 1.539749 -34.720789 -2.746496 0.000000 0.000000 0.000000 -1.542837 -0.031507 2.255543 22.146514 -8.072055 -8.265915 1.900944 1.799304 -61.628974 1.357233 22.632213 5.051360 0.000000 0.000000 0.000000 
-3.399018 80.856049 30.362707 179.960226 4.899391 -179.872731 -4.551673 -1.405277 10.849547 -4.235214 2.221245 -23.551921 10.160789 3.657299 31.301138 2.028536 -9.484775 -13.731788 0.000000 0.000000 0.000000 -1.430823 -0.987287 10.406844 -0.546857 -2.616657 -20.252020 -1.539190 1.988307 29.639930 8.181156 4.745122 -12.349770 0.000000 0.000000 0.000000 2.460812 1.610044 -1.708665 -5.177084 2.024679 -1.603293 0.727367 -2.812069 4.432333 -0.023368 0.061112 0.040326 0.743896 -1.938576 5.834832 -0.031806 1.535044 -3.415603 0.000000 0.000000 0.000000 2.132773 -1.230659 2.802552 -1.968733 4.768450 -6.391382 -7.339054 -7.883636 -49.932340 1.601613 -34.677656 -2.760579 0.000000 0.000000 0.000000 -1.569873 -0.079489 2.357762 22.231574 -8.109332 -8.341629 1.887939 1.661773 -61.748653 1.449014 22.890115 5.175787 0.000000 0.000000 0.000000 
-3.377947 80.845688 30.332243 -179.975129 4.794114 -179.879234 -4.506127 -1.470005 10.806987 -4.224072 2.152096 -23.499939 10.194194 3.622859 31.371093 2.040724 -9.447812 -13.768980 0.000000 0.000000 0.000000 -1.396505 -1.075900 10.400829 -0.526924 -2.572438 -20.196816 -1.505297 2.005541 29.617357 8.217138 4.730601 -12.354876 0.000000 0.000000 0.000000 2.467468 1.499950 -1.713204 -5.060808 1.954851 -1.641386 0.737028 -2.845257 4.502464 0.027317 0.043380 0.037673 0.640351 -2.018038 5.884395 -0.045755 1.456787 -3.400308 0.000000 0.000000 0.000000 2.040107 -1.177456 2.829789 -2.002274 4.896394 -6.374577 -7.292193 -8.031701 -49.772319 1.616704 -34.662896 -2.655553 0.000000 0.000000 0.000000 -1.681011 -0.017141 2.409730 22.329270 -8.076859 -8.287770 1.929056 1.470473 -62.045848 1.605013 23.140981 5.140574 0.000000 0.000000 0.000000 
-3.362362 80.844360 30.308657 -179.978790 4.754585 -179.917715 -4.513830 -1.542040 10.755752 -4.206957 2.073259 -23.420119 10.232709 3.584021 31.411497 2.080766 -9.373026 -13.752273 0.000000 0.000000 0.000000 -1.372097 -1.213350 10.366462 -0.522074 -2.639393 -20.097885 -1.481601 2.071622 29.627636 8.272542 4.733704 -12.435498 0.000000 0.000000 0.000000 2.437646 1.449970 -1.644395 -4.973033 1.959217 -1.741148 0.712263 -2.849429 4.514769 0.026797 0.021086 0.027407 0.576846 -2.003778 5.903297 -0.028504 1.358055 -3.292131 0.000000 0.000000 0.000000 2.009125 -1.206371 2.846837 -2.021399 4.949050 -6.204871 -7.303841 -8.118851 -49.560761 1.828592 -34.684011 -2.703327 0.000000 0.000000 0.000000 -1.730562 -0.016325 2.467293 22.397167 -8.146705 -8.251841 2.093093 1.382134 -62.113563 1.627271 23.417092 5.270819 0.000000 0.000000 0.000000 
-3.361759 80.842064 30.290518 179.957207 5.048603 -179.910024 -4.567678 -1.482209 10.693646 -4.222614 2.082150 -23.375110 10.240784 3.661757 31.468632 2.125340 -9.301380 -13.777422 0.000000 0.000000 0.000000 -1.419341 -1.127119 10.264278 -0.564165 -2.587769 -20.032301 -1.465305 2.172235 29.606032 8.318736 4.720783 -12.450341 0.000000 0.000000 0.000000 2.388329 1.434206 -1.639562 -4.922689 2.006780 -1.815302 0.650730 -2.807225 4.564753 0.002566 0.033788 0.062167 0.576735 -1.897382 5.962660 0.034045 1.225785 -3.182833 0.000000 0.000000 0.000000 1.988085 -1.063414 2.887908 -1.915440 5.140524 -6.337169 -7.581409 -8.280851 -49.252351 1.852423 -34.724173 -2.466025 0.000000 0.000000 0.000000 -1.710168 0.084957 2.535652 22.564058 -8.162351 -8.189435 2.177194 1.220701 -62.316255 1.736011 23.654140 5.408698 0.000000 0.000000 0.000000 
-3.362557 80.850441 30.290306 -179.967425 5.229150 -179.903918 -4.555168 -1.456843 10.647222 -4.162366 2.073988 -23.351626 10.259598 3.663749 31.525192 2.176678 -9.218834 -13.768241 0.000000 0.000000 0.000000 -1.353760 -1.138153 10.182181 -0.560220 -2.566361 -19.933876 -1.433566 2.260292 29.502599 8.383296 4.715467 -12.465899 0.000000 0.000000 0.000000 2.397820 1.634240 -1.580551 -4.792533 2.274503 -1.882056 0.653949 -2.884722 4.581166 -0.039854 -0.061954 0.055125 0.561520 -1.846951 6.026157 0.119653 1.076886 -3.030614 0.000000 0.000000 0.000000 1.993913 -1.117950 2.954312 -1.788165 5.094865 -6.313916 -7.941373 -8.355379 -49.049593 1.950261 -34.775348 -2.237579 0.000000 0.000000 0.000000 -1.744882 0.047190 2.539882 22.784652 -8.241762 -7.853837 2.276798 1.079836 -62.763947 1.772035 23.968391 5.154538 0.000000 0.000000 0.000000 
-3.368777 80.843727 30.300043 179.987861 5.108678 -179.871092 -4.652083 -1.605477 10.613385 -4.124576 1.955687 -23.385304 10.288571 3.648871 31.628738 2.226479 -9.128456 -13.776519 0.000000 0.000000 0.000000 -1.432639 -1.341347 10.119795 -0.564461 -2.591247 -19.898882 -1.399544 2.291585 29.479759 8.458346 4.731449 -12.441359 0.000000 0.000000 0.000000 2.302470 1.339753 -1.579522 -4.755518 2.081266 -1.935171 0.677540 -2.736490 4.587155 0.046281 0.019440 0.008897 0.503735 -1.866964 6.074840 0.195311 0.929566 -2.990540 0.000000 0.000000 0.000000 1.932137 -1.072633 2.974621 -1.667398 5.122451 -6.160639 -8.534167 -8.332132 -48.941160 1.942985 -34.789234 -1.849441 0.000000 0.000000 0.000000 -1.822466 0.128278 2.654652 22.806060 -8.168962 -7.790151 2.638979 1.012460 -63.256267 1.991300 24.305001 5.112991 0.000000 0.000000 0.000000 
-3.389591 80.840042 30.339878 179.984350 5.081256 -179.843976 -4.740603 -1.652966 10.609103 -4.059406 1.894399 -23.463913 10.301012 3.642904 31.695783 2.241810 -9.059979 -13.791184 0.000000 0.000000 0.000000 -1.468987 -1.407880 10.050676 -0.536372 -2.635884 -19.894707 -1.377609 2.349946 29.471959 8.525398 4.754214 -12.392229 0.000000 0.000000 0.000000 2.192262 1.277414 -1.475692 -4.711223 2.121936 -1.951605 0.689149 -2.680846 4.525044 -0.021928 0.038544 0.022784 0.589153 -1.692670 6.134502 0.256072 0.796678 -2.848750 0.000000 0.000000 0.000000 2.054460 -1.003031 3.021709 -1.530347 5.114414 -6.207566 -9.312950 -8.321710 -48.939975 1.930938 -34.651595 -1.431156 0.000000 0.000000 0.000000 -1.723616 0.197994 2.695539 22.966564 -8.013725 -7.519704 2.915271 0.903969 -63.784630 2.209269 24.606943 5.023314 0.000000 0.000000 0.000000 
